HIERARCHY
ROOT Hips
{
	OFFSET 0.00000 0.00000 0.00000
	CHANNELS 6 Xposition Yposition Zposition Zrotation Yrotation Xrotation 
	JOINT LHipJoint
	{
		OFFSET 0 0 0
		CHANNELS 3 Zrotation Yrotation Xrotation
		JOINT LeftHip
		{
			OFFSET 1.76014 -1.80163 0.38499
			CHANNELS 3 Zrotation Yrotation Xrotation
			JOINT LeftKnee
			{
				OFFSET 2.46817 -6.78126 0.00000
				CHANNELS 3 Zrotation Yrotation Xrotation
				JOINT LeftAnkle
				{
					OFFSET 2.79348 -7.67503 0.00000
					CHANNELS 3 Zrotation Yrotation Xrotation
					JOINT LeftToe
					{
						OFFSET 0.09421 -0.25885 1.91403
						CHANNELS 3 Zrotation Yrotation Xrotation
						End Site
						{
							OFFSET 0.00000 -0.00000 0.97975
						}
					}
				}
			}
		}
	}
	JOINT RHipJoint
	{
		OFFSET 0 0 0
		CHANNELS 3 Zrotation Yrotation Xrotation
		JOINT RightHip
		{
			OFFSET -1.77926 -1.80163 0.38499
			CHANNELS 3 Zrotation Yrotation Xrotation
			JOINT RightKnee
			{
				OFFSET -2.51996 -6.92353 0.00000
				CHANNELS 3 Zrotation Yrotation Xrotation
				JOINT RightAnkle
				{
					OFFSET -2.76109 -7.58603 0.00000
					CHANNELS 3 Zrotation Yrotation Xrotation
					JOINT RightToe
					{
						OFFSET -0.08067 -0.22163 1.86812
						CHANNELS 3 Zrotation Yrotation Xrotation
						End Site
						{
							OFFSET -0.00000 -0.00000 0.95558
						}
					}
				}
			}
		}
	}
	JOINT lowerback
	{
		OFFSET 0 0 0
		CHANNELS 3 Zrotation Yrotation Xrotation
		JOINT Chest
		{
			OFFSET 0.05537 1.92033 -0.03713
			CHANNELS 3 Zrotation Yrotation Xrotation
			JOINT Chest2
			{
				OFFSET 0.04452 1.90073 0.10860
				CHANNELS 3 Zrotation Yrotation Xrotation
				JOINT lowerneck
				{
					OFFSET 0 0 0
					CHANNELS 3 Zrotation Yrotation Xrotation
					JOINT Neck
					{
						OFFSET 0.00903 1.74649 0.02074
						CHANNELS 3 Zrotation Yrotation Xrotation
						JOINT Head
						{
							OFFSET -0.08608 1.67844 -0.12081
							CHANNELS 3 Zrotation Yrotation Xrotation
							End Site
							{
								OFFSET -0.03521 1.83380 -0.05059
							}
						}
					}
				}
				JOINT LeftCollar
				{
					OFFSET 0 0 0
					CHANNELS 3 Zrotation Yrotation Xrotation
					JOINT LeftShoulder
					{
						OFFSET 3.28197 0.84325 -0.19106
CHANNELS 3 Zrotation Xrotation Yrotation
						JOINT LeftElbow
						{
OFFSET 0 -5.243180 -0.000000
CHANNELS 3 Zrotation Xrotation Yrotation
							JOINT LeftWrist
							{
OFFSET 0 -2.989990 0.000000
CHANNELS 3 Zrotation Xrotation Yrotation
								JOINT lhand
								{
									OFFSET 0 0 0
CHANNELS 3 Zrotation Xrotation Yrotation
									JOINT LFingers
									{
OFFSET 0 -0.726740 0.000000
CHANNELS 3 Zrotation Xrotation Yrotation
										End Site
										{
OFFSET 0 -0.585920 0.000000
										}
									}
								}
								JOINT LThumb
								{
OFFSET 0 0.000000 0.000000
CHANNELS 3 Zrotation Xrotation Yrotation
									End Site
									{
OFFSET 0 -0.594870 0.594870
									}
								}
							}
						}
					}
				}
				JOINT RightCollar
				{
					OFFSET 0 0 0
					CHANNELS 3 Zrotation Yrotation Xrotation
					JOINT RightShoulder
					{
						OFFSET -3.30963 0.78377 0.14264
CHANNELS 3 Zrotation Xrotation Yrotation
						JOINT RightElbow
						{
OFFSET 0 -5.370450 0.000000
CHANNELS 3 Zrotation Xrotation Yrotation
							JOINT RightWrist
							{
OFFSET 0 -2.927920 0.000000
CHANNELS 3 Zrotation Xrotation Yrotation
								JOINT rhand
								{
									OFFSET 0 0 0
CHANNELS 3 Zrotation Xrotation Yrotation
									JOINT RFingers
									{
OFFSET 0 -0.784500 0.000000
CHANNELS 3 Zrotation Xrotation Yrotation
										End Site
										{
OFFSET 0 -0.632480 0.000000
										}
									}
								}
								JOINT RThumb
								{
OFFSET 0 0.000000 0.000000
CHANNELS 3 Zrotation Xrotation Yrotation
									End Site
									{
OFFSET 0 -0.642140 0.642140
									}
								}
							}
						}
					}
				}
			}
		}
	}
}
MOTION
Frames: 8
Frame Time: 0.008333333333333333
0.221224 16.826262 0.161439 -1.837219 0.767086 -5.924378 0.000000 0.000000 0.000000 -13.616258 -3.009047 -16.723617 7.170571 15.473829 49.516461 1.406734 -6.792704 -21.222351 1.672736 -8.147969 -23.164505 0.000000 0.000000 0.000000 18.443072 -0.991402 -19.051583 -6.929377 -15.272151 48.606813 -0.970594 8.363386 -17.680071 -0.141204 2.420813 -6.670277 0.623815 0.344096 4.560433 1.988306 0.324303 11.024907 1.771418 0.111073 9.065758 0.992510 0.696746 -2.254096 -7.735494 1.332968 5.708553 -2.644792 0.487360 2.286295 0.000000 0.000000 0.000000 67.374421 -11.254017 -22.249379 41.440365 -48.900260 19.517855 -18.605398 -50.977252 -28.160268 0.000000 0.000000 0.000000 -7.125000 0.000000 0.000000 -48.525398 51.646880 9.902547 0.000000 0.000000 0.000000 -42.257543 9.079241 17.917346 -31.516007 -42.157584 -12.414907 28.391466 -18.823602 -3.752973 0.000000 0.000000 0.000000 7.125000 0.000000 0.000000 37.661487 23.881168 24.994975
0.353155 16.856458 0.153574 -2.300499 -4.576569 -5.190255 0.000000 0.000000 0.000000 -13.846336 -2.074392 -16.513227 7.166855 15.470816 49.502600 1.504693 -2.379950 -22.545165 1.875245 -8.600950 -24.555032 0.000000 0.000000 0.000000 18.822756 2.415271 -19.196710 -6.699523 -15.073542 47.728610 -0.693677 9.829773 -15.373385 -0.130966 2.331323 -6.422343 1.595922 0.331854 3.733031 1.924270 0.247658 11.069589 1.166277 0.147400 9.611764 2.055930 0.625975 -2.077910 -6.927153 1.149743 5.891628 -2.573364 0.437606 2.305232 0.000000 0.000000 0.000000 59.325431 -5.982887 -22.794209 33.268913 -43.535555 13.607002 -18.087963 -32.738939 -26.054466 0.000000 0.000000 0.000000 -7.125000 0.000000 0.000000 -46.385440 50.173477 7.315198 0.000000 0.000000 0.000000 -52.566499 -0.091655 11.456407 -44.175116 -50.356479 -21.602101 25.767710 -15.127527 -3.533471 0.000000 0.000000 0.000000 7.125000 0.000000 0.000000 36.428608 24.532123 22.901059
0.277038 16.851571 0.137065 -2.808728 -2.155602 -5.042352 0.000000 0.000000 0.000000 -12.686159 -2.167636 -17.578604 7.265162 15.551197 49.870187 1.462026 -5.015069 -21.772269 1.660855 -8.120690 -23.081343 0.000000 0.000000 0.000000 19.561011 1.302156 -19.387296 -6.685634 -15.061343 47.675074 -0.793605 8.680961 -16.107703 -0.161290 2.587824 -7.133322 1.432195 0.162781 3.628698 1.908218 0.023323 11.478653 1.239003 0.027260 10.142339 0.347844 -0.775027 -2.248911 -4.767122 -0.735247 6.877572 -1.612534 -0.497770 2.555219 0.000000 0.000000 0.000000 60.333905 -9.974022 -15.930615 35.562424 -45.209557 15.211206 12.856612 31.369164 -18.779796 0.000000 0.000000 0.000000 -7.125000 0.000000 0.000000 -14.893383 48.625616 1.359775 0.000000 0.000000 0.000000 -49.515407 -1.417586 3.229369 -47.576011 -51.966432 -24.252317 -8.709365 16.147541 -8.953199 0.000000 0.000000 0.000000 7.125000 0.000000 0.000000 13.039536 21.015534 7.694365
0.301379 16.888947 0.258302 -1.567197 -4.784873 -4.972668 0.000000 0.000000 0.000000 -14.375510 -1.038475 -16.079482 6.861938 15.214504 48.350367 1.466522 -2.726071 -22.172311 2.005907 -8.878444 -25.415735 0.000000 0.000000 0.000000 18.167498 2.056685 -19.184161 -6.670735 -15.048252 47.617921 -0.677309 10.451178 -15.367438 -0.061973 1.604420 -4.413666 0.514922 0.730125 2.422734 1.678000 0.799709 11.543014 1.567817 0.329957 10.915617 0.442361 -2.159938 -2.260652 -4.897562 -2.531809 8.261095 -1.749032 -1.408664 2.968434 0.000000 0.000000 0.000000 63.748275 -9.544820 -3.854608 37.281507 -46.374024 16.443527 7.610564 19.451825 -23.096345 0.000000 0.000000 0.000000 -7.125000 0.000000 0.000000 -21.772754 51.927818 3.865774 0.000000 0.000000 0.000000 -51.659950 -7.672435 8.641695 -33.652244 -43.824005 -13.872137 -3.835206 20.759052 -5.173910 0.000000 0.000000 0.000000 7.125000 0.000000 0.000000 16.905676 24.764510 8.633259
0.362685 16.881753 0.433769 -0.573420 -2.568709 -6.146389 0.000000 0.000000 0.000000 -15.906591 -1.354467 -14.095402 6.707628 15.080666 47.759601 1.485211 -3.707813 -22.133349 1.867579 -8.583966 -24.502695 0.000000 0.000000 0.000000 16.940147 2.050825 -16.766184 -6.732842 -15.102742 47.856468 -0.956019 8.408752 -17.556418 -0.339908 3.743833 -10.357394 1.174481 -0.849683 1.499017 1.868050 -1.416127 12.000243 1.240392 -0.703936 12.060605 -1.753458 -1.795586 -0.840895 -3.761115 -2.064007 8.246532 -0.958399 -1.192624 2.739949 0.000000 0.000000 0.000000 54.679240 -9.058097 -8.425783 30.819469 -41.583993 11.950349 2.676142 17.552068 -22.624446 0.000000 0.000000 0.000000 -7.125000 0.000000 0.000000 -26.115065 50.697474 3.896142 0.000000 0.000000 0.000000 -57.003932 -9.774842 1.252451 -41.920875 -49.165754 -19.881216 -3.410232 20.862018 -3.339756 0.000000 0.000000 0.000000 7.125000 0.000000 0.000000 17.469137 26.518290 8.193668
0.322695 16.920455 0.600578 -0.431801 -4.513535 -5.933778 0.000000 0.000000 0.000000 -16.166927 -0.754688 -12.789744 6.398483 14.803709 46.560853 1.495375 -2.169342 -22.522019 1.945320 -8.751270 -25.020195 0.000000 0.000000 0.000000 16.940818 2.150341 -16.412342 -6.571633 -14.960289 47.235018 -0.815872 10.004139 -16.544663 -0.152673 2.516520 -6.935496 1.179118 0.118137 0.918281 1.833596 -0.107610 11.605168 1.313487 -0.062807 11.927401 0.453717 -0.952310 -1.062212 -6.004003 -0.792188 9.372447 -2.071798 -0.586075 3.181397 0.000000 0.000000 0.000000 56.189748 -7.709517 -8.292529 36.941492 -46.149340 16.197943 5.008803 16.412025 -21.898586 0.000000 0.000000 0.000000 -7.125000 0.000000 0.000000 -23.577967 50.405562 3.301424 0.000000 0.000000 0.000000 -53.648801 -10.644387 3.249906 -38.595928 -47.215397 -17.401777 -3.233712 18.480083 -3.701892 0.000000 0.000000 0.000000 7.125000 0.000000 0.000000 17.545168 26.170817 8.383594
0.223732 16.932976 0.674428 -1.152077 -1.567379 -5.359429 0.000000 0.000000 0.000000 -14.979863 -2.359806 -13.337126 6.450409 14.851117 46.763794 1.480966 -3.520996 -22.131958 2.053731 -8.977060 -25.723627 0.000000 0.000000 0.000000 18.220041 1.827707 -16.131248 -6.506659 -14.901964 46.982793 -1.017104 8.030883 -18.058028 -0.115412 2.175325 -5.990980 1.025386 -0.122998 0.379143 1.844326 -0.417816 11.329204 1.380482 -0.223801 11.939575 -0.659119 -1.492809 -1.744567 -4.232083 -1.570261 10.205758 -1.333915 -0.966404 3.579504 0.000000 0.000000 0.000000 56.787058 -11.096027 -6.733135 39.036528 -47.487167 17.726180 5.110580 14.917784 -22.754925 0.000000 0.000000 0.000000 -7.125000 0.000000 0.000000 -23.936968 51.203626 3.845122 0.000000 0.000000 0.000000 -53.920660 -7.586883 6.363104 -33.515702 -43.722142 -13.777443 -2.136019 17.319782 -2.563196 0.000000 0.000000 0.000000 7.125000 0.000000 0.000000 18.524215 27.241387 8.405394
0.237679 17.006817 0.735898 -0.552750 -2.782909 -5.012801 0.000000 0.000000 0.000000 -16.030779 -2.289587 -12.188121 5.987791 14.416510 44.932742 1.445995 -2.719711 -22.011965 1.620907 -8.027259 -22.796753 0.000000 0.000000 0.000000 17.571540 2.248035 -15.737203 -6.242002 -14.658918 45.945611 -0.953494 8.317579 -17.524025 -0.166317 2.627168 -7.242548 1.185381 -0.490277 -0.334598 1.925782 -0.955449 11.107477 1.320158 -0.476932 12.128903 -0.493698 -1.445437 -1.362307 -3.698694 -1.614567 8.941016 -1.161741 -0.943594 3.068767 0.000000 0.000000 0.000000 52.578204 -8.209953 -7.927421 32.367209 -42.837949 12.989879 2.949382 15.598112 -22.134119 0.000000 0.000000 0.000000 -7.125000 0.000000 0.000000 -25.595988 50.299863 3.547161 0.000000 0.000000 0.000000 -55.597494 -9.347358 3.806770 -39.402773 -47.712011 -17.996148 -5.041488 15.929506 -2.818590 0.000000 0.000000 0.000000 7.125000 0.000000 0.000000 16.342145 27.033514 7.413292
